HIERARCHY
ROOT root
{
	OFFSET	0	13.1	24.9
	CHANNELS 6  Xposition Yposition Zposition Xrotation Yrotation Zrotation
	JOINT spine_1
	{
		OFFSET	0	9.99999	0
		CHANNELS 3  Xrotation Yrotation Zrotation
		JOINT spine_2
		{
			OFFSET	0	112	-10
			CHANNELS 3  Xrotation Yrotation Zrotation
			JOINT spine_3
			{
				OFFSET	0	206.5	19.3
				CHANNELS 3  Xrotation Yrotation Zrotation
				JOINT spine_4
				{
					OFFSET	0	110.4	14.6
					CHANNELS 3  Xrotation Yrotation Zrotation
					JOINT neck_1
					{
						OFFSET	0	71.8	-50.3
						CHANNELS 3  Xrotation Yrotation Zrotation
						JOINT neck_2
						{
							OFFSET	0	86.2	-25.8
							CHANNELS 3  Xrotation Yrotation Zrotation
							JOINT head_ee
							{
								OFFSET	0	179.8	-8.7
								CHANNELS 3  Xrotation Yrotation Zrotation
								End Site
								{
									OFFSET	1	0	0
								}
							}
						}
					}
					JOINT left_clavicle
					{
						OFFSET	-43.2	22.4	-70.8
						CHANNELS 3  Xrotation Yrotation Zrotation
						JOINT left_shoulder
						{
							OFFSET	-93.9	-5.79999	48.7
							CHANNELS 3  Xrotation Yrotation Zrotation
							JOINT left_elbow
							{
								OFFSET	-291.4	-30.8	15.2
								CHANNELS 3  Xrotation Yrotation Zrotation
								JOINT left_lowarm_twist
								{
									OFFSET	-110.7	-3.89999	13.6
									CHANNELS 3  Xrotation Yrotation Zrotation
									JOINT left_hand
									{
										OFFSET	-110.7	-3.89999	13.6
										CHANNELS 3  Xrotation Yrotation Zrotation
										JOINT left_ee
										{
											OFFSET	-80.8	-5.10001	12.1
											CHANNELS 3  Xrotation Yrotation Zrotation
											End Site
											{
												OFFSET	1	0	0
											}
										}
									}
								}
							}
						}
					}
					JOINT right_clavicle
					{
						OFFSET	43.2	22.4	-70.8
						CHANNELS 3  Xrotation Yrotation Zrotation
						JOINT right_shoulder
						{
							OFFSET	93.9	-5.79999	48.7
							CHANNELS 3  Xrotation Yrotation Zrotation
							JOINT right_elbow
							{
								OFFSET	291.4	-30.8	15.2
								CHANNELS 3  Xrotation Yrotation Zrotation
								JOINT right_lowarm_twist
								{
									OFFSET	110.7	-3.89999	13.6
									CHANNELS 3  Xrotation Yrotation Zrotation
									JOINT right_hand
									{
										OFFSET	110.7	-3.89999	13.6
										CHANNELS 3  Xrotation Yrotation Zrotation
										JOINT right_ee
										{
											OFFSET	80.8	-5.10001	12.1
											CHANNELS 3  Xrotation Yrotation Zrotation
											End Site
											{
												OFFSET	1	0	0
											}
										}
									}
								}
							}
						}
					}
				}
			}
		}
	}
	JOINT left_hip
	{
		OFFSET	-82.8	-127.5	0.300001
		CHANNELS 3  Xrotation Yrotation Zrotation
		JOINT left_knee
		{
			OFFSET	-28.2	-396.7	2.2
			CHANNELS 3  Xrotation Yrotation Zrotation
			JOINT left_ankle
			{
				OFFSET	-11.7	-411.3	35.4
				CHANNELS 3  Xrotation Yrotation Zrotation
				JOINT left_toes
				{
					OFFSET	0	-60	-88.6
					CHANNELS 3  Xrotation Yrotation Zrotation
					JOINT left_foot_ee
					{
						OFFSET	-22.5	-16.5	-42.2
						CHANNELS 3  Xrotation Yrotation Zrotation
						End Site
						{
							OFFSET	1	0	0
						}
					}
				}
			}
		}
	}
	JOINT right_hip
	{
		OFFSET	82.8	-127.5	0.300001
		CHANNELS 3  Xrotation Yrotation Zrotation
		JOINT right_knee
		{
			OFFSET	28.2	-396.7	2.2
			CHANNELS 3  Xrotation Yrotation Zrotation
			JOINT right_ankle
			{
				OFFSET	11.7	-411.3	35.4
				CHANNELS 3  Xrotation Yrotation Zrotation
				JOINT right_toes
				{
					OFFSET	0	-60	-88.6
					CHANNELS 3  Xrotation Yrotation Zrotation
					JOINT right_foot_ee
					{
						OFFSET	22.5	-16.5	-42.2
						CHANNELS 3  Xrotation Yrotation Zrotation
						End Site
						{
							OFFSET	1	0	0
						}
					}
				}
			}
		}
	}
}
MOTION
Frames: 6
Frame Time: 0.02
3177.02 653.055 -1669.29 -16.9130478132 68.4676179563 14.2602268467 2.7574 1.03376 3.49874 2.76385 0.809172 3.55733 2.81286 0.22325 3.64126 2.79524 0.79515 3.56049 -11.3577 10.4388 -6.48127 -11.5034 23.9633 -3.37803 -0.0 0.0 -0.0 -6.3141 24.3297 -5.74059 -25.4099 -3.71671 70.8736 0.492581 -13.713 0.0592296 -5.73576 -0.237058 0.693527 1.51955 21.0753 17.7056 -0.0 0.0 -0.0 13.5151 24.5933 -27.0329 14.0106 15.2279 -64.1121 2.98032 55.8774 -1.58083 10.6945 -0.252298 1.34085 1.01488 14.5035 -0.652011 0.0 0.0 0.0 29.2061 1.45895 -8.94188 -6.29724 0.207582 0.943663 21.0813 12.488 -2.87686 -37.7139 0.0 0.0 -0.0 0.0 -0.0 -18.9757 33.3812 3.58134 -4.87361 -0.169757 -0.728464 41.4114 -11.2842 5.00966 38.3203 -0.0 -0.0 0.0 0.0 0.0 
3160.04184504 652.734 -1658.93701232 -17.9374512862 68.5286978323 16.1273655132 2.82111 0.806298 3.14667 2.82642 0.604539 3.19153 2.85892 0.0827318 3.24717 2.8447 0.59426 3.19346 -9.46225 9.96673 -6.06252 -9.47454 22.847 -3.52161 -0.0 0.0 -0.0 -6.2717 23.7971 -5.84219 -24.8659 -2.9505 73.1504 0.561467 -15.5432 0.0766286 -5.82148 -0.241125 0.703705 1.39838 22.6241 17.4209 -0.0 0.0 -0.0 12.4327 24.8972 -24.4935 12.6583 13.8981 -64.8903 3.03195 56.3325 -1.62369 10.5059 -0.25003 1.31687 1.13643 14.0363 -1.67271 0.0 0.0 0.0 30.4224 1.56015 -8.58415 -8.58959 0.257214 1.29192 22.8397 12.8812 -3.09342 -38.7101 0.0 0.0 -0.0 0.0 -0.0 -19.5221 33.6766 4.00463 -4.87336 -0.16975 -0.728427 38.7051 -16.8056 4.84343 39.2949 -0.0 -0.0 0.0 0.0 0.0 
3137.7079005 654.58 -1657.77490846 -19.9863253998 69.6436563842 18.1430034237 2.91069 0.597208 3.07574 2.91586 0.400377 3.10747 2.9362 -0.101306 3.13149 2.92273 0.394283 3.10825 -9.75696 10.7688 -3.81588 -9.8625 22.8344 -1.03997 -0.0 0.0 -0.0 -6.17174 23.2724 -5.85818 -24.3499 -2.2804 73.5041 0.624658 -17.1941 0.0944387 -6.31243 -0.264714 0.761885 1.15379 25.1659 16.7006 -0.0 0.0 -0.0 11.9463 25.1127 -23.3558 11.391 13.0793 -66.5053 3.09174 56.8463 -1.6736 9.54563 -0.237257 1.19488 1.3823 13.7851 -3.43688 0.0 0.0 0.0 30.3265 1.75199 -7.9928 -10.8032 0.29188 1.62979 26.1869 10.7659 -3.47646 -39.4693 0.0 0.0 -0.0 0.0 -0.0 -19.6189 33.918 3.9741 -5.73714 -0.19334 -0.858888 36.4882 -20.1212 4.69366 40.1323 -0.0 -0.0 0.0 0.0 0.0 
3093.47672464 659.638 -1656.19396462 -21.8125912283 70.4693119224 20.1905349516 3.123 0.59559 3.26144 3.12883 0.386964 3.29268 3.14915 -0.131866 3.3127 3.13405 0.392678 3.29201 -7.95296 10.3544 -2.69995 -7.96541 21.2295 -0.407205 -0.0 0.0 -0.0 -6.0252 22.9763 -5.73752 -23.8998 -3.49927 73.163 0.676619 -18.53 0.110378 -7.17898 -0.307564 0.864078 1.0428 28.6626 17.0662 -0.0 0.0 -0.0 12.2571 25.1651 -24.0615 7.86664 10.5852 -68.1868 2.67787 52.9803 -1.33475 8.87772 -0.227168 1.11016 1.29474 10.5943 -4.23823 0.0 0.0 0.0 29.5352 1.5763 -7.82041 -15.1096 0.321823 2.28971 30.0537 10.6782 -3.90602 -39.462 0.0 0.0 -0.0 0.0 -0.0 -18.4402 32.5318 2.72329 -9.9528 -0.280107 -1.49984 32.7731 -27.0721 4.4795 39.9576 -0.0 -0.0 0.0 0.0 0.0 
3073.70703145 660.049 -1648.26124517 -21.7619179884 70.8913033129 20.1124850247 3.11868 0.622911 3.01151 3.12363 0.43011 3.045 3.14489 -0.050713 3.07478 3.13196 0.435298 3.04426 -8.32637 10.2471 -3.30443 -8.34666 21.4667 -0.959084 -0.0 0.0 -0.0 -5.9559 22.4559 -5.78925 -22.4965 -3.06234 73.7111 0.679524 -18.6041 0.111303 -7.05771 -0.301474 0.849815 0.922488 29.4082 16.5964 -0.0 0.0 -0.0 11.8632 25.3723 -23.1384 6.97988 9.65319 -68.7727 2.38733 49.7753 -1.10766 7.50232 -0.203284 0.936093 1.44259 10.4735 -5.29138 0.0 0.0 0.0 29.8785 2.33324 -6.70017 -17.9846 0.314182 2.7307 32.9366 11.6669 -4.21562 -39.4338 0.0 0.0 -0.0 0.0 -0.0 -17.887 32.91 2.47853 -12.325 -0.308128 -1.86272 34.414 -26.1562 4.6329 40.2483 -0.0 -0.0 0.0 0.0 0.0 
3048.02328969 665.732 -1649.45039997 -21.4625405451 70.4640314433 20.5215629585 3.33007 0.340225 2.77381 3.33434 0.1631 2.78982 3.34057 -0.265384 2.78197 3.32982 0.17713 2.78897 -7.40025 10.8447 -1.8478 -7.39981 21.5114 0.443031 -0.0 0.0 -0.0 -5.73872 21.1682 -5.83874 -20.4505 -3.12984 73.1481 0.676401 -18.5245 0.110308 -7.12161 -0.304679 0.857332 1.00245 29.371 17.0368 -0.0 0.0 -0.0 12.2415 24.526 -24.0935 4.92338 8.53315 -69.0515 2.0879 45.96 -0.885482 7.68319 -0.206663 0.95895 1.49944 9.90536 -5.9229 0.0 0.0 0.0 27.8096 2.66108 -6.72973 -17.7314 0.315743 2.69189 33.732 12.6187 -4.30462 -38.9288 0.0 0.0 -0.0 0.0 -0.0 -15.4667 31.8511 1.50117 -14.8889 -0.321495 -2.25584 32.4053 -25.9634 4.40607 40.249 -0.0 -0.0 0.0 0.0 0.0 
